# This file uses centimeters as units for non-parametric coordinates.

mtllib platform4x4.mtl
g default
v -1.990486 -7.922843 0.375012
v -1.963392 -7.963392 0.375012
v -1.922843 -7.990486 0.375012
v -1.875013 -8.000000 0.375012
v -1.875013 -7.990486 0.422843
v -1.875013 -7.963392 0.463392
v -1.875013 -7.922843 0.490486
v -1.875013 -7.875012 0.500000
v -1.922843 -7.875012 0.490486
v -1.963392 -7.875012 0.463392
v -1.990486 -7.875012 0.422843
v -2.000000 -7.875012 0.375012
v 1.922843 -7.990486 0.375012
v 1.963392 -7.963392 0.375012
v 1.990486 -7.922843 0.375012
v 2.000000 -7.875012 0.375012
v 1.990486 -7.875012 0.422843
v 1.963392 -7.875012 0.463392
v 1.922843 -7.875012 0.490486
v 1.875013 -7.875012 0.500000
v 1.875013 -7.922843 0.490486
v 1.875013 -7.963392 0.463392
v 1.875013 -7.990486 0.422843
v 1.875013 -8.000000 0.375012
v -1.922843 7.990486 0.375012
v -1.963392 7.963392 0.375012
v -1.990486 7.922843 0.375012
v -2.000000 7.875012 0.375012
v -1.990486 7.875012 0.422843
v -1.963392 7.875012 0.463392
v -1.922843 7.875012 0.490486
v -1.875013 7.875012 0.500000
v -1.875013 7.922843 0.490486
v -1.875013 7.963392 0.463392
v -1.875013 7.990486 0.422843
v -1.875013 8.000000 0.375012
v 1.990486 7.922843 0.375012
v 1.963392 7.963392 0.375012
v 1.922843 7.990486 0.375012
v 1.875013 8.000000 0.375012
v 1.875013 7.990486 0.422843
v 1.875013 7.963392 0.463392
v 1.875013 7.922843 0.490486
v 1.875013 7.875012 0.500000
v 1.922843 7.875012 0.490486
v 1.963392 7.875012 0.463392
v 1.990486 7.875012 0.422843
v 2.000000 7.875012 0.375012
v -1.922843 7.875012 -0.490486
v -1.963392 7.875012 -0.463392
v -1.990486 7.875012 -0.422843
v -2.000000 7.875012 -0.375012
v -1.990486 7.922843 -0.375012
v -1.963392 7.963392 -0.375012
v -1.922843 7.990486 -0.375012
v -1.875013 8.000000 -0.375012
v -1.875013 7.990486 -0.422843
v -1.875013 7.963392 -0.463392
v -1.875013 7.922843 -0.490486
v -1.875013 7.875012 -0.500000
v 1.990486 7.875012 -0.422843
v 1.963392 7.875012 -0.463392
v 1.922843 7.875012 -0.490486
v 1.875013 7.875012 -0.500000
v 1.875013 7.922843 -0.490486
v 1.875013 7.963392 -0.463392
v 1.875013 7.990486 -0.422843
v 1.875013 8.000000 -0.375012
v 1.922843 7.990486 -0.375012
v 1.963392 7.963392 -0.375012
v 1.990486 7.922843 -0.375012
v 2.000000 7.875012 -0.375012
v -1.922843 -7.990486 -0.375012
v -1.963392 -7.963392 -0.375012
v -1.990486 -7.922843 -0.375012
v -2.000000 -7.875012 -0.375012
v -1.990486 -7.875012 -0.422843
v -1.963392 -7.875012 -0.463392
v -1.922843 -7.875012 -0.490486
v -1.875013 -7.875012 -0.500000
v -1.875013 -7.922843 -0.490486
v -1.875013 -7.963392 -0.463392
v -1.875013 -7.990486 -0.422843
v -1.875013 -8.000000 -0.375012
v 1.990486 -7.922843 -0.375012
v 1.963392 -7.963392 -0.375012
v 1.922843 -7.990486 -0.375012
v 1.875013 -8.000000 -0.375012
v 1.875013 -7.990486 -0.422843
v 1.875013 -7.963392 -0.463392
v 1.875013 -7.922843 -0.490486
v 1.875013 -7.875012 -0.500000
v 1.922843 -7.875012 -0.490486
v 1.963392 -7.875012 -0.463392
v 1.990486 -7.875012 -0.422843
v 2.000000 -7.875012 -0.375012
v -1.984060 -7.918154 0.418154
v -1.959438 -7.959438 0.411640
v -1.918154 -7.984059 0.418154
v -1.911640 -7.959438 0.459438
v -1.918154 -7.918154 0.484060
v -1.959438 -7.911640 0.459438
v -1.947149 -7.947149 0.447149
v 1.918154 -7.984059 0.418154
v 1.959438 -7.959438 0.411640
v 1.984060 -7.918154 0.418154
v 1.959438 -7.911640 0.459438
v 1.918154 -7.918154 0.484060
v 1.911640 -7.959438 0.459438
v 1.947149 -7.947149 0.447149
v -1.918154 7.984059 0.418154
v -1.959438 7.959438 0.411640
v -1.984060 7.918154 0.418154
v -1.959438 7.911640 0.459438
v -1.918154 7.918154 0.484060
v -1.911640 7.959438 0.459438
v -1.947149 7.947149 0.447149
v 1.984060 7.918154 0.418154
v 1.959438 7.959438 0.411640
v 1.918154 7.984059 0.418154
v 1.911640 7.959438 0.459438
v 1.918154 7.918154 0.484060
v 1.959438 7.911640 0.459438
v 1.947149 7.947149 0.447149
v -1.918154 7.918154 -0.484060
v -1.959438 7.911640 -0.459438
v -1.984060 7.918154 -0.418154
v -1.959438 7.959438 -0.411640
v -1.918154 7.984059 -0.418154
v -1.911640 7.959438 -0.459438
v -1.947149 7.947149 -0.447149
v 1.984060 7.918154 -0.418154
v 1.959438 7.911640 -0.459438
v 1.918154 7.918154 -0.484060
v 1.911640 7.959438 -0.459438
v 1.918154 7.984059 -0.418154
v 1.959438 7.959438 -0.411640
v 1.947149 7.947149 -0.447149
v -1.918154 -7.984059 -0.418154
v -1.959438 -7.959438 -0.411640
v -1.984060 -7.918154 -0.418154
v -1.959438 -7.911640 -0.459438
v -1.918154 -7.918154 -0.484060
v -1.911640 -7.959438 -0.459438
v -1.947149 -7.947149 -0.447149
v 1.984060 -7.918154 -0.418154
v 1.959438 -7.959438 -0.411640
v 1.918154 -7.984059 -0.418154
v 1.911640 -7.959438 -0.459438
v 1.918154 -7.918154 -0.484060
v 1.959438 -7.911640 -0.459438
v 1.947149 -7.947149 -0.447149
vt 0.382812 0.968753
vt 0.382812 0.001953
vt 0.617188 0.968753
vt 0.656247 0.001953
vt 0.382812 0.248047
vt 0.617188 0.248047
vt 0.656247 0.248047
vt 0.156247 0.001953
vt 0.382812 0.468753
vt 0.617188 0.468753
vt 0.843753 0.248047
vt 0.843753 0.001953
vt 0.617188 0.781247
vt 0.382812 0.748047
vt 0.617188 0.748047
vt 0.617188 0.001953
vt 0.382812 0.281247
vt 0.617188 0.281247
vt 0.382812 0.501953
vt 0.617188 0.501953
vt 0.382812 0.781247
vt 0.343753 0.001953
vt 0.343753 0.248047
vt 0.156247 0.248047
vt 0.347575 0.001276
vt 0.375000 0.979798
vt 0.354798 0.000000
vt 0.378605 0.974707
vt 0.381863 0.986329
vt 0.381367 -0.000000
vt 0.381367 1.000000
vt 0.382414 0.001447
vt 0.379241 0.002123
vt 0.372249 0.002210
vt 0.360569 0.002166
vt 0.621393 0.974700
vt 0.645202 -0.000000
vt 0.625000 0.979798
vt 0.652421 0.001277
vt 0.639450 0.002162
vt 0.627757 0.002206
vt 0.620760 0.002120
vt 0.617588 0.001448
vt 0.618633 1.000000
vt 0.618633 -0.000000
vt 0.618144 0.986356
vt 0.378607 0.275299
vt 0.354798 0.250000
vt 0.375000 0.270202
vt 0.347579 0.248723
vt 0.360548 0.247946
vt 0.372240 0.248026
vt 0.379244 0.248022
vt 0.382675 0.250219
vt 0.382358 0.256336
vt 0.382343 0.266771
vt 0.652425 0.248724
vt 0.625000 0.270202
vt 0.645202 0.250000
vt 0.621394 0.275298
vt 0.617656 0.266784
vt 0.617632 0.256357
vt 0.617326 0.250214
vt 0.620749 0.248035
vt 0.627751 0.248034
vt 0.639432 0.247947
vt 0.380179 0.502750
vt 0.125000 0.245700
vt 0.375000 0.504300
vt 0.138201 0.246899
vt 0.152426 0.248725
vt 0.375000 0.479798
vt 0.145202 0.250000
vt 0.378606 0.474702
vt 0.382400 0.483272
vt 0.382475 0.493750
vt 0.382726 0.499834
vt 0.861776 0.246907
vt 0.625000 0.504300
vt 0.875000 0.245700
vt 0.619827 0.502760
vt 0.617271 0.499830
vt 0.617536 0.493770
vt 0.617605 0.483281
vt 0.621393 0.474701
vt 0.854798 0.250000
vt 0.625000 0.479798
vt 0.847579 0.248723
vt 0.378607 0.775299
vt 0.145202 0.000000
vt 0.375000 0.770202
vt 0.152421 0.001277
vt 0.138224 0.003093
vt 0.375000 0.745700
vt 0.125000 0.004300
vt 0.380173 0.747240
vt 0.382729 0.750170
vt 0.382464 0.756230
vt 0.382395 0.766719
vt 0.847574 0.001275
vt 0.625000 0.770202
vt 0.854798 -0.000000
vt 0.621394 0.775298
vt 0.617600 0.766728
vt 0.617525 0.756251
vt 0.617274 0.750166
vt 0.619821 0.747250
vt 0.875000 0.004300
vt 0.625000 0.745700
vt 0.861799 0.003101
vt 0.361664 0.001431
vt 0.375000 0.990038
vt 0.365038 0.000000
vt 0.378275 0.988427
vt 0.378842 0.000000
vt 0.378842 1.000000
vt 0.379008 0.001788
vt 0.373209 0.001584
vt 0.375000 1.000000
vt 0.375000 0.000000
vt 0.621712 0.988400
vt 0.634962 -0.000000
vt 0.625000 0.990038
vt 0.638385 0.001424
vt 0.626793 0.001582
vt 0.620973 0.001761
vt 0.621158 1.000000
vt 0.621158 -0.000000
vt 0.625000 0.000000
vt 0.625000 1.000000
vt 0.378480 0.262807
vt 0.365038 0.250000
vt 0.375000 0.259962
vt 0.361616 0.248618
vt 0.373185 0.248865
vt 0.379085 0.249132
vt 0.378645 0.253127
vt 0.375000 0.250000
vt 0.638334 0.248615
vt 0.625000 0.259962
vt 0.634962 0.250000
vt 0.621485 0.262828
vt 0.621449 0.252977
vt 0.620862 0.249278
vt 0.626822 0.248853
vt 0.625000 0.250000
vt 0.380107 0.501528
vt 0.125000 0.246846
vt 0.375000 0.503154
vt 0.137621 0.248040
vt 0.375000 0.490038
vt 0.134962 0.250000
vt 0.378512 0.487167
vt 0.379023 0.497527
vt 0.125000 0.250000
vt 0.375000 0.500000
vt 0.862311 0.248062
vt 0.625000 0.503154
vt 0.875000 0.246846
vt 0.619971 0.501653
vt 0.620885 0.497364
vt 0.621502 0.487211
vt 0.865038 0.250000
vt 0.625000 0.490038
vt 0.625000 0.500000
vt 0.875000 0.250000
vt 0.378498 0.762789
vt 0.134962 -0.000000
vt 0.375000 0.759962
vt 0.137689 0.001938
vt 0.375000 0.746846
vt 0.125000 0.003154
vt 0.380029 0.748347
vt 0.379115 0.752636
vt 0.125000 0.000000
vt 0.375000 0.750000
vt 0.862379 0.001960
vt 0.625000 0.759962
vt 0.865038 0.000000
vt 0.621488 0.762833
vt 0.620977 0.752473
vt 0.619893 0.748472
vt 0.875000 0.003154
vt 0.625000 0.746846
vt 0.625000 0.750000
vt 0.875000 0.000000
vn -0.002481 -0.999926 0.011900
vn -0.381752 -0.924218 0.009302
vn -0.381752 -0.924218 -0.009302
vn -0.002481 -0.999926 -0.011900
vn -0.707196 -0.706965 0.008577
vn -0.707196 -0.706965 -0.008577
vn -0.924346 -0.381442 0.009288
vn -0.924346 -0.381442 -0.009288
vn -0.999929 -0.000596 0.011918
vn -0.999929 -0.000596 -0.011918
vn -0.002501 -0.000598 0.999997
vn -0.001978 -0.381801 0.924242
vn 0.001978 -0.381801 0.924242
vn 0.002501 -0.000598 0.999997
vn -0.001787 -0.706701 0.707510
vn 0.001787 -0.706701 0.707510
vn -0.001903 -0.923754 0.382981
vn 0.001903 -0.923754 0.382981
vn 0.002481 -0.999926 0.011900
vn -0.923785 -0.000434 0.382912
vn -0.923785 0.000434 0.382912
vn -0.999929 0.000596 0.011918
vn -0.706899 -0.000412 0.707314
vn -0.706899 0.000412 0.707314
vn -0.382428 -0.000414 0.923985
vn -0.382428 0.000414 0.923985
vn -0.002501 0.000598 0.999997
vn 0.999929 -0.000596 0.011918
vn 0.924346 -0.381442 0.009288
vn 0.924346 -0.381442 -0.009288
vn 0.999929 -0.000596 -0.011918
vn 0.707196 -0.706965 0.008577
vn 0.707196 -0.706965 -0.008577
vn 0.381752 -0.924218 0.009302
vn 0.381752 -0.924218 -0.009302
vn 0.002481 -0.999926 -0.011900
vn 0.382428 -0.000414 0.923985
vn 0.382428 0.000414 0.923985
vn 0.002501 0.000598 0.999997
vn 0.706899 -0.000412 0.707314
vn 0.706899 0.000412 0.707314
vn 0.923785 -0.000434 0.382912
vn 0.923785 0.000434 0.382912
vn 0.999929 0.000596 0.011918
vn -0.924346 0.381442 0.009288
vn -0.924346 0.381442 -0.009288
vn -0.999929 0.000596 -0.011918
vn -0.707196 0.706965 0.008577
vn -0.707196 0.706965 -0.008577
vn -0.381752 0.924218 0.009302
vn -0.381752 0.924218 -0.009302
vn -0.002481 0.999926 0.011900
vn -0.002481 0.999926 -0.011900
vn -0.001903 0.923754 0.382981
vn 0.001903 0.923754 0.382981
vn 0.002481 0.999926 0.011900
vn -0.001787 0.706701 0.707510
vn 0.001787 0.706701 0.707510
vn -0.001978 0.381801 0.924242
vn 0.001978 0.381801 0.924242
vn 0.381752 0.924218 0.009302
vn 0.381752 0.924218 -0.009302
vn 0.002481 0.999926 -0.011900
vn 0.707196 0.706965 0.008577
vn 0.707196 0.706965 -0.008577
vn 0.924346 0.381442 0.009288
vn 0.924346 0.381442 -0.009288
vn 0.999929 0.000596 -0.011918
vn -0.923785 0.000434 -0.382912
vn -0.923785 -0.000434 -0.382912
vn -0.706899 0.000412 -0.707314
vn -0.706899 -0.000412 -0.707314
vn -0.382428 0.000414 -0.923985
vn -0.382428 -0.000414 -0.923985
vn -0.002501 0.000598 -0.999997
vn -0.002501 -0.000598 -0.999997
vn -0.001978 0.381801 -0.924242
vn 0.001978 0.381801 -0.924242
vn 0.002501 0.000598 -0.999997
vn -0.001787 0.706701 -0.707510
vn 0.001787 0.706701 -0.707510
vn -0.001903 0.923754 -0.382981
vn 0.001903 0.923754 -0.382981
vn 0.382428 0.000414 -0.923985
vn 0.382428 -0.000414 -0.923985
vn 0.002501 -0.000598 -0.999997
vn 0.706899 0.000412 -0.707314
vn 0.706899 -0.000412 -0.707314
vn 0.923785 0.000434 -0.382912
vn 0.923785 -0.000434 -0.382912
vn -0.001903 -0.923754 -0.382981
vn 0.001903 -0.923754 -0.382981
vn -0.001787 -0.706701 -0.707510
vn 0.001787 -0.706701 -0.707510
vn -0.001978 -0.381801 -0.924242
vn 0.001978 -0.381801 -0.924242
vn -0.887105 -0.331157 0.321529
vn -0.685690 -0.680190 0.259175
vn -0.337717 -0.875392 0.345886
vn -0.320956 -0.648607 0.690142
vn -0.346228 -0.321243 0.881436
vn -0.668226 -0.315940 0.673540
vn -0.606468 -0.598485 0.523462
vn 0.337717 -0.875392 0.345885
vn 0.685690 -0.680190 0.259174
vn 0.887104 -0.331158 0.321529
vn 0.668227 -0.315940 0.673539
vn 0.346231 -0.321245 0.881434
vn 0.320956 -0.648608 0.690141
vn 0.606469 -0.598486 0.523459
vn -0.337717 0.875392 0.345885
vn -0.685690 0.680190 0.259174
vn -0.887104 0.331158 0.321529
vn -0.668227 0.315940 0.673539
vn -0.346231 0.321245 0.881434
vn -0.320956 0.648608 0.690141
vn -0.606469 0.598486 0.523459
vn 0.887105 0.331157 0.321529
vn 0.685690 0.680190 0.259175
vn 0.337717 0.875392 0.345886
vn 0.320956 0.648607 0.690142
vn 0.346228 0.321243 0.881436
vn 0.668226 0.315940 0.673540
vn 0.606468 0.598485 0.523462
vn -0.346228 0.321243 -0.881436
vn -0.668226 0.315940 -0.673540
vn -0.887105 0.331157 -0.321529
vn -0.685690 0.680190 -0.259175
vn -0.337717 0.875392 -0.345886
vn -0.320956 0.648607 -0.690142
vn -0.606468 0.598485 -0.523462
vn 0.887104 0.331158 -0.321529
vn 0.668227 0.315940 -0.673539
vn 0.346231 0.321245 -0.881434
vn 0.320956 0.648609 -0.690141
vn 0.337717 0.875392 -0.345885
vn 0.685690 0.680190 -0.259174
vn 0.606469 0.598486 -0.523459
vn -0.337717 -0.875392 -0.345885
vn -0.685690 -0.680190 -0.259174
vn -0.887104 -0.331158 -0.321529
vn -0.668227 -0.315940 -0.673539
vn -0.346231 -0.321245 -0.881434
vn -0.320956 -0.648608 -0.690141
vn -0.606469 -0.598486 -0.523459
vn 0.887105 -0.331157 -0.321529
vn 0.685690 -0.680190 -0.259175
vn 0.337717 -0.875392 -0.345886
vn 0.320956 -0.648607 -0.690142
vn 0.346228 -0.321243 -0.881436
vn 0.668226 -0.315940 -0.673540
vn 0.606468 -0.598485 -0.523462
s 1
g pCube2
usemtl phong1SG
f 4/1/1 3/28/2 73/89/3 84/21/4
f 3/28/2 2/26/5 74/91/6 73/89/3
f 2/27/5 1/25/7 75/92/8 74/90/6
f 1/25/7 12/22/9 76/8/10 75/92/8
f 8/2/11 7/32/12 21/43/13 20/16/14
f 7/32/12 6/30/15 22/45/16 21/43/13
f 6/31/15 5/29/17 23/46/18 22/44/16
f 5/29/17 4/1/1 24/3/19 23/46/18
f 12/22/9 11/35/20 29/51/21 28/23/22
f 11/35/20 10/34/23 30/52/24 29/51/21
f 10/34/23 9/33/25 31/53/26 30/52/24
f 9/33/25 8/2/11 32/5/27 31/53/26
f 16/4/28 15/39/29 85/100/30 96/12/31
f 15/39/29 14/37/32 86/102/33 85/100/30
f 14/38/32 13/36/34 87/103/35 86/101/33
f 13/36/34 24/3/19 88/13/36 87/103/35
f 20/16/14 19/42/37 45/64/38 44/6/39
f 19/42/37 18/41/40 46/65/41 45/64/38
f 18/41/40 17/40/42 47/66/43 46/65/41
f 17/40/42 16/4/28 48/7/44 47/66/43
f 28/23/22 27/50/45 53/71/46 52/24/47
f 27/50/45 26/48/48 54/73/49 53/71/46
f 26/49/48 25/47/50 55/74/51 54/72/49
f 25/47/50 36/17/52 56/9/53 55/74/51
f 36/17/52 35/56/54 41/61/55 40/18/56
f 35/56/54 34/55/57 42/62/58 41/61/55
f 34/55/57 33/54/59 43/63/60 42/62/58
f 33/54/59 32/5/27 44/6/39 43/63/60
f 40/18/56 39/60/61 69/85/62 68/10/63
f 39/60/61 38/58/64 70/87/65 69/85/62
f 38/59/64 37/57/66 71/88/67 70/86/65
f 37/57/66 48/7/44 72/11/68 71/88/67
f 52/24/47 51/70/69 77/93/70 76/8/10
f 51/70/69 50/68/71 78/95/72 77/93/70
f 50/69/71 49/67/73 79/96/74 78/94/72
f 49/67/73 60/19/75 80/14/76 79/96/74
f 60/19/75 59/77/77 65/82/78 64/20/79
f 59/77/77 58/76/80 66/83/81 65/82/78
f 58/76/80 57/75/82 67/84/83 66/83/81
f 57/75/82 56/9/53 68/10/63 67/84/83
f 64/20/79 63/81/84 93/107/85 92/15/86
f 63/81/84 62/79/87 94/109/88 93/107/85
f 62/80/87 61/78/89 95/110/90 94/108/88
f 61/78/89 72/11/68 96/12/31 95/110/90
f 84/21/4 83/99/91 89/104/92 88/13/36
f 83/99/91 82/98/93 90/105/94 89/104/92
f 82/98/93 81/97/95 91/106/96 90/105/94
f 81/97/95 80/14/76 92/15/86 91/106/96
f 8/2/11 20/16/14 44/6/39 32/5/27
f 36/17/52 40/18/56 68/10/63 56/9/53
f 60/19/75 64/20/79 92/15/86 80/14/76
f 84/21/4 88/13/36 24/3/19 4/1/1
f 16/4/28 96/12/31 72/11/68 48/7/44
f 76/8/10 12/22/9 28/23/22 52/24/47
f 11/35/20 12/22/9 1/25/7 97/111/97
f 97/111/97 1/25/7 2/27/5 98/113/98
f 98/112/98 2/26/5 3/28/2 99/114/99
f 3/28/2 4/1/1 5/29/17 99/114/99
f 99/114/99 5/29/17 6/31/15 100/116/100
f 100/115/100 6/30/15 7/32/12 101/117/101
f 7/32/12 8/2/11 9/33/25 101/117/101
f 101/117/101 9/33/25 10/34/23 102/118/102
f 102/118/102 10/34/23 11/35/20 97/111/97
f 102/118/102 97/111/97 98/113/98 103/120/103
f 98/112/98 99/114/99 100/116/100 103/119/103
f 100/115/100 101/117/101 102/118/102 103/120/103
f 23/46/18 24/3/19 13/36/34 104/121/104
f 104/121/104 13/36/34 14/38/32 105/123/105
f 105/122/105 14/37/32 15/39/29 106/124/106
f 15/39/29 16/4/28 17/40/42 106/124/106
f 106/124/106 17/40/42 18/41/40 107/125/107
f 107/125/107 18/41/40 19/42/37 108/126/108
f 19/42/37 20/16/14 21/43/13 108/126/108
f 108/126/108 21/43/13 22/45/16 109/128/109
f 109/127/109 22/44/16 23/46/18 104/121/104
f 109/127/109 104/121/104 105/123/105 110/130/110
f 105/122/105 106/124/106 107/125/107 110/129/110
f 107/125/107 108/126/108 109/128/109 110/129/110
f 35/56/54 36/17/52 25/47/50 111/131/111
f 111/131/111 25/47/50 26/49/48 112/133/112
f 112/132/112 26/48/48 27/50/45 113/134/113
f 27/50/45 28/23/22 29/51/21 113/134/113
f 113/134/113 29/51/21 30/52/24 114/135/114
f 114/135/114 30/52/24 31/53/26 115/136/115
f 31/53/26 32/5/27 33/54/59 115/136/115
f 115/136/115 33/54/59 34/55/57 116/137/116
f 116/137/116 34/55/57 35/56/54 111/131/111
f 116/137/116 111/131/111 112/133/112 117/138/117
f 112/132/112 113/134/113 114/135/114 117/138/117
f 114/135/114 115/136/115 116/137/116 117/138/117
f 47/66/43 48/7/44 37/57/66 118/139/118
f 118/139/118 37/57/66 38/59/64 119/141/119
f 119/140/119 38/58/64 39/60/61 120/142/120
f 39/60/61 40/18/56 41/61/55 120/142/120
f 120/142/120 41/61/55 42/62/58 121/143/121
f 121/143/121 42/62/58 43/63/60 122/144/122
f 43/63/60 44/6/39 45/64/38 122/144/122
f 122/144/122 45/64/38 46/65/41 123/145/123
f 123/145/123 46/65/41 47/66/43 118/139/118
f 123/145/123 118/139/118 119/141/119 124/146/124
f 119/140/119 120/142/120 121/143/121 124/146/124
f 121/143/121 122/144/122 123/145/123 124/146/124
f 59/77/77 60/19/75 49/67/73 125/147/125
f 125/147/125 49/67/73 50/69/71 126/149/126
f 126/148/126 50/68/71 51/70/69 127/150/127
f 51/70/69 52/24/47 53/71/46 127/150/127
f 127/150/127 53/71/46 54/73/49 128/152/128
f 128/151/128 54/72/49 55/74/51 129/153/129
f 55/74/51 56/9/53 57/75/82 129/153/129
f 129/153/129 57/75/82 58/76/80 130/154/130
f 130/154/130 58/76/80 59/77/77 125/147/125
f 130/154/130 125/147/125 126/149/126 131/156/131
f 126/148/126 127/150/127 128/152/128 131/155/131
f 128/151/128 129/153/129 130/154/130 131/156/131
f 71/88/67 72/11/68 61/78/89 132/157/132
f 132/157/132 61/78/89 62/80/87 133/159/133
f 133/158/133 62/79/87 63/81/84 134/160/134
f 63/81/84 64/20/79 65/82/78 134/160/134
f 134/160/134 65/82/78 66/83/81 135/161/135
f 135/161/135 66/83/81 67/84/83 136/162/136
f 67/84/83 68/10/63 69/85/62 136/162/136
f 136/162/136 69/85/62 70/87/65 137/164/137
f 137/163/137 70/86/65 71/88/67 132/157/132
f 137/163/137 132/157/132 133/159/133 138/166/138
f 133/158/133 134/160/134 135/161/135 138/165/138
f 135/161/135 136/162/136 137/164/137 138/165/138
f 83/99/91 84/21/4 73/89/3 139/167/139
f 139/167/139 73/89/3 74/91/6 140/169/140
f 140/168/140 74/90/6 75/92/8 141/170/141
f 75/92/8 76/8/10 77/93/70 141/170/141
f 141/170/141 77/93/70 78/95/72 142/172/142
f 142/171/142 78/94/72 79/96/74 143/173/143
f 79/96/74 80/14/76 81/97/95 143/173/143
f 143/173/143 81/97/95 82/98/93 144/174/144
f 144/174/144 82/98/93 83/99/91 139/167/139
f 144/174/144 139/167/139 140/169/140 145/176/145
f 140/168/140 141/170/141 142/172/142 145/175/145
f 142/171/142 143/173/143 144/174/144 145/176/145
f 95/110/90 96/12/31 85/100/30 146/177/146
f 146/177/146 85/100/30 86/102/33 147/179/147
f 147/178/147 86/101/33 87/103/35 148/180/148
f 87/103/35 88/13/36 89/104/92 148/180/148
f 148/180/148 89/104/92 90/105/94 149/181/149
f 149/181/149 90/105/94 91/106/96 150/182/150
f 91/106/96 92/15/86 93/107/85 150/182/150
f 150/182/150 93/107/85 94/109/88 151/184/151
f 151/183/151 94/108/88 95/110/90 146/177/146
f 151/183/151 146/177/146 147/179/147 152/186/152
f 147/178/147 148/180/148 149/181/149 152/185/152
f 149/181/149 150/182/150 151/184/151 152/185/152
